<?xml version="1.0" standalone="no"?>
<!DOCTYPE svg PUBLIC "-//W3C//DTD SVG 20010904//EN"
 "http://www.w3.org/TR/2001/REC-SVG-20010904/DTD/svg10.dtd">
<svg version="1.0" xmlns="http://www.w3.org/2000/svg"
 width="500.000000pt" height="500.000000pt" viewBox="0 0 500.000000 500.000000"
 preserveAspectRatio="xMidYMid meet">

<g transform="translate(0.000000,500.000000) scale(0.100000,-0.100000)"
fill="#000000" stroke="none">
<path d="M2724 3352 c-37 -24 -39 -93 -4 -112 73 -39 141 32 94 98 -15 22 -66
30 -90 14z"/>
<path d="M2330 3232 c-111 -37 -167 -83 -217 -179 -31 -59 -55 -181 -32 -168
7 5 8 2 1 -11 -6 -11 -23 -50 -39 -87 -23 -57 -35 -72 -65 -88 -150 -77 -169
-328 -34 -447 64 -56 93 -66 189 -68 77 -2 97 -6 150 -33 101 -51 221 -64 327
-37 39 10 70 12 108 6 101 -17 195 15 268 92 72 75 89 118 90 234 1 90 4 105
28 146 14 25 31 71 37 104 28 149 -38 290 -169 366 -50 28 -68 33 -147 36
l-90 4 -48 45 c-96 89 -240 124 -357 85z m235 -182 c320 -52 487 -431 309
-700 l-28 -42 -15 33 c-66 151 -101 217 -125 235 -22 16 -26 24 -18 43 10 27
-48 269 -74 309 -38 58 -135 80 -196 45 -43 -26 -67 -71 -95 -181 -33 -125
-37 -156 -25 -177 7 -14 2 -24 -24 -49 -18 -17 -58 -80 -88 -139 l-55 -108
-30 53 c-32 55 -61 162 -61 221 0 18 5 60 11 93 33 178 188 334 360 363 75 12
86 12 154 1z m-41 -205 c3 -8 21 -23 41 -32 38 -18 41 -28 24 -87 -13 -48 -59
-96 -92 -96 -52 0 -107 72 -107 139 0 24 5 31 28 35 15 4 41 18 57 31 35 29
41 30 49 10z m-56 -226 c22 -7 36 -7 51 0 16 9 24 7 45 -14 15 -14 26 -28 26
-31 0 -2 -15 -13 -32 -24 -39 -24 -88 -26 -128 -5 -44 23 -43 33 6 84 1 1 15
-4 32 -10z m5 -194 c27 -25 52 -45 57 -45 4 0 15 11 24 25 22 33 61 49 87 34
11 -6 37 -29 57 -51 20 -22 47 -44 59 -49 28 -10 29 -30 3 -54 -19 -17 -21
-17 -60 19 -45 40 -52 43 -70 21 -23 -28 -32 -15 -10 15 25 35 20 40 -10 8
-18 -19 -22 -20 -35 -7 -13 13 -13 18 0 44 l15 30 -23 -28 -24 -28 -30 18
c-17 10 -44 28 -61 41 l-31 22 15 -30 c9 -17 14 -36 11 -43 -3 -7 -9 -1 -15
13 -5 14 -18 32 -28 40 -17 14 -17 14 -1 -10 9 -13 17 -32 17 -41 0 -17 -28
-22 -46 -7 -7 5 -23 4 -40 -2 -67 -26 -72 19 -8 73 61 50 87 49 147 -8z m-195
-83 c12 -9 13 -15 4 -24 -14 -14 -42 6 -42 32 0 22 13 35 18 18 3 -7 11 -19
20 -26z m176 -10 c-107 -77 -177 -124 -164 -109 20 21 183 136 194 137 5 0 -9
-13 -30 -28z m63 6 c-3 -8 -6 -5 -6 6 -1 11 2 17 5 13 3 -3 4 -12 1 -19z m4
-23 c11 6 11 5 2 -5 -12 -14 -33 -6 -33 13 0 8 3 7 9 -2 5 -8 14 -10 22 -6z
m39 -6 c0 -6 -4 -7 -10 -4 -5 3 -10 11 -10 16 0 6 5 7 10 4 6 -3 10 -11 10
-16z m-90 1 c0 -5 -7 -10 -15 -10 -8 0 -15 -4 -15 -10 0 -5 -6 -10 -12 -10 -7
1 -2 10 11 20 26 23 31 24 31 10z m213 -25 c42 -29 51 -46 10 -20 -55 36 -67
45 -58 45 6 0 27 -11 48 -25z m-186 -17 c-3 -8 -6 -5 -6 6 -1 11 2 17 5 13 3
-3 4 -12 1 -19z m58 12 c3 -5 1 -10 -4 -10 -6 0 -11 5 -11 10 0 6 2 10 4 10 3
0 8 -4 11 -10z m-85 -10 c0 -5 -8 -10 -17 -10 -15 0 -16 2 -3 10 19 12 20 12
20 0z m53 -5 c-3 -9 -8 -14 -10 -11 -3 3 -2 9 2 15 9 16 15 13 8 -4z m-25 -40
c-3 -3 -9 2 -12 12 -6 14 -5 15 5 6 7 -7 10 -15 7 -18z m56 9 c3 -8 2 -12 -4
-9 -6 3 -10 10 -10 16 0 14 7 11 14 -7z m-84 -6 c0 -4 -7 -8 -15 -8 -8 0 -15
4 -15 8 0 5 7 9 15 9 8 0 15 -4 15 -9z m55 -35 c0 -39 -3 -47 -20 -48 -14 -1
-21 5 -21 16 0 17 2 17 18 2 22 -19 24 -1 3 21 -16 16 -20 31 -6 22 5 -3 11 3
14 14 8 32 12 23 12 -27z m-100 -3 c3 -5 1 -10 -4 -10 -6 0 -11 5 -11 10 0 6
2 10 4 10 3 0 8 -4 11 -10z m45 4 c0 -8 -19 -13 -24 -6 -3 5 1 9 9 9 8 0 15
-2 15 -3z m90 -35 c0 -6 -4 -7 -10 -4 -5 3 -10 11 -10 16 0 6 5 7 10 4 6 -3
10 -11 10 -16z"/>
<path d="M2380 2385 c7 -9 15 -13 17 -11 7 7 -7 26 -19 26 -6 0 -6 -6 2 -15z"/>
<path d="M2590 2375 c-6 -8 -10 -19 -8 -24 1 -5 11 2 21 15 19 26 8 34 -13 9z"/>
<path d="M3703 1795 c0 -27 2 -38 4 -22 2 15 2 37 0 50 -2 12 -4 0 -4 -28z"/>
<path d="M3742 1720 c0 -14 2 -19 5 -12 2 6 2 18 0 25 -3 6 -5 1 -5 -13z"/>
<path d="M3701 1643 c-1 -29 3 -53 7 -53 4 0 6 16 4 35 -3 21 0 35 7 35 6 0
11 5 11 11 0 5 -4 8 -9 5 -5 -4 -12 0 -14 6 -3 7 -6 -11 -6 -39z"/>
<path d="M3743 1640 c0 -30 2 -43 4 -27 2 15 2 39 0 55 -2 15 -4 2 -4 -28z"/>
</g>
</svg>
